#!OML:ASF H:\charlestonDancing\Project 1\Capture day 1\Session 1\femaleDancer.ASF
:FULLY-SPECIFIED
:DEGREES
376
root -2.13304 17.2005 5.6675 604.695 -85.5608 -604.287
lowerback 21.7999 -5.90814 -1.82592
upperback 6.07217 -8.71181 -2.68553
thorax -5.60024 -4.41067 0.426061
lowerneck 2.70487 -6.24523 -3.68911
upperneck -7.12801 -8.43956 3.05172
head -2.43171 -4.24166 1.83595
rclavicle 5.28767e-014 -1.19271e-014
rhumerus -46.87 -16.6059 -47.9075
rradius 87.1252
rwrist -50.0959
rhand -7.38561 -28.5146
rfingers 7.12502
rthumb 18.4999 -57.6549
lclavicle 5.28767e-014 -1.19271e-014
lhumerus -21.5053 1.60425 60.6458
lradius 62.5691
lwrist 14.585
lhand -20.862 13.4877
lfingers 7.12502
lthumb 5.50758 43.3961
rfemur -40.4053 5.07553 14.8864
rtibia 79.0093
rfoot -2.78583 4.79404
rtoes -27.7058
lfemur -22.8489 2.47282 -31.8211
ltibia 43.986
lfoot -13.556 -6.30478
ltoes -7.92164
377
root -2.06078 17.2141 5.65501 621.996 -86.4121 -622.537
lowerback 23.0815 -6.25508 -1.83261
upperback 6.61692 -9.21945 -2.64945
thorax -5.64574 -4.67447 0.70458
lowerneck 2.41048 -6.42124 -3.77712
upperneck -7.33425 -8.65232 3.46291
head -2.41759 -4.36099 1.97944
rclavicle -1.94809e-014 -2.46493e-014
rhumerus -46.4708 -17.1466 -48.1872
rradius 86.7696
rwrist -50.3804
rhand -7.37554 -28.6609
rfingers 7.12502
rthumb 18.5096 -57.8003
lclavicle -1.94809e-014 -2.46493e-014
lhumerus -16.1117 0.447647 59.8456
lradius 64.4336
lwrist 14.7624
lhand -21.5555 13.1612
lfingers 7.12502
lthumb 4.83794 43.086
rfemur -42.5709 5.46953 15.2345
rtibia 82.2152
rfoot -3.76526 3.31243
rtoes -27.2034
lfemur -21.6947 1.98647 -31.3354
ltibia 43.1631
lfoot -12.5138 -6.61075
ltoes -9.00034
378
root -2.00016 17.251 5.66027 641.677 -86.3307 -643.078
lowerback 24.0708 -6.51686 -2.03647
upperback 7.20554 -9.66765 -2.74693
thorax -5.4761 -4.91849 0.902779
lowerneck 2.07945 -6.50331 -3.8561
upperneck -7.4043 -8.75412 3.59764
head -2.36752 -4.41606 2.02387
rclavicle 5.12864e-014 -7.15625e-015
rhumerus -45.9139 -17.6694 -48.4817
rradius 86.3252
rwrist -50.7658
rhand -7.46498 -28.5119
rfingers 7.12502
rthumb 18.4236 -57.6595
lclavicle 5.12864e-014 -7.15625e-015
lhumerus -10.2846 -0.363493 59.111
lradius 65.2839
lwrist 14.4678
lhand -22.1089 12.9185
lfingers 7.12502
lthumb 4.30363 42.8547
rfemur -44.5869 5.78913 15.0461
rtibia 84.6882
rfoot -4.98396 2.19506
rtoes -25.5249
lfemur -20.4031 1.70905 -31.4368
ltibia 42.0465
lfoot -11.6523 -6.90438
ltoes -10.0956
379
root -1.94665 17.3077 5.67754 654.117 -86.2957 -655.995
lowerback 24.694 -6.67625 -1.8782
upperback 7.61806 -9.86994 -2.72741
thorax -5.35007 -5.03621 0.935514
lowerneck 1.67945 -6.45857 -3.90077
upperneck -7.11423 -8.6983 3.37125
head -2.20923 -4.38033 1.92793
rclavicle 2.42517e-014 -5.1684e-014
rhumerus -45.3504 -18.0038 -48.6743
rradius 85.7579
rwrist -51.0404
rhand -7.53057 -28.3869
rfingers 7.12502
rthumb 18.3605 -57.5404
lclavicle 2.42517e-014 -5.1684e-014
lhumerus -4.71577 -0.75868 58.6703
lradius 65.638
lwrist 13.7173
lhand -21.4075 13.09
lfingers 7.12502
lthumb 4.98089 43.0115
rfemur -46.8395 6.5867 15.1663
rtibia 86.2119
rfoot -6.23408 0.965195
rtoes -25.0498
lfemur -19.4905 1.38015 -31.2603
ltibia 40.9255
lfoot -11.0766 -6.98089
ltoes -9.84731
380
root -1.89552 17.3689 5.69772 663.182 -86.4776 -665.158
lowerback 24.8857 -6.75606 -1.57773
upperback 7.96437 -9.90682 -2.56954
thorax -5.08145 -5.07462 0.944471
lowerneck 0.961092 -6.22572 -3.827
upperneck -6.55697 -8.3939 2.77486
head -1.93753 -4.21419 1.67003
rclavicle 6.32135e-014 7.71285e-014
rhumerus -44.5111 -18.1676 -48.893
rradius 84.9759
rwrist -51.0858
rhand -7.50803 -28.2892
rfingers 7.12502
rthumb 18.3822 -57.4406
lclavicle 6.32135e-014 7.71285e-014
lhumerus 0.273339 -0.668312 58.5334
lradius 66.0591
lwrist 12.4845
lhand -20.7004 12.7673
lfingers 7.12502
lthumb 5.66361 42.6716
rfemur -49.3898 7.84034 15.4377
rtibia 86.7173
rfoot -7.65365 -0.305274
rtoes -25.4106
lfemur -18.8766 0.722427 -30.8439
ltibia 39.5981
lfoot -10.6745 -6.55111
ltoes -9.55575
381
root -1.84683 17.4297 5.71978 673.242 -86.6475 -675.02
lowerback 24.7967 -6.87697 -1.25282
upperback 8.23908 -9.97398 -2.33315
thorax -4.74249 -5.1254 1.00196
lowerneck 0.205881 -5.75958 -3.6191
upperneck -6.05145 -7.78226 1.95434
head -1.70102 -3.89605 1.32461
rclavicle -1.43125e-014 -1.51076e-014
rhumerus -43.3748 -18.1533 -49.1842
rradius 84.0239
rwrist -51.0469
rhand -7.30764 -28.0308
rfingers 7.12502
rthumb 18.5749 -57.164
lclavicle -1.43125e-014 -1.51076e-014
lhumerus 4.69055 -0.373657 58.481
lradius 66.5328
lwrist 11.5163
lhand -21.5789 12.0533
lfingers 7.12502
lthumb 4.8154 41.9786
rfemur -51.9822 9.10915 15.5845
rtibia 86.0765
rfoot -8.81851 -0.752902
rtoes -23.6635
lfemur -18.5107 -0.357468 -30.3578
ltibia 38.278
lfoot -10.5734 -5.72072
ltoes -10.4516
382
root -1.82878 17.5077 5.75157 672.449 -87.4315 -674.393
lowerback 24.9846 -6.71898 -1.13388
upperback 8.61195 -9.76315 -2.15597
thorax -4.4126 -5.05073 1.05632
lowerneck -0.361429 -5.09334 -3.13462
upperneck -5.91786 -6.91925 0.984041
head -1.63285 -3.45826 0.911846
rclavicle -2.42517e-013 2.46493e-014
rhumerus -41.9533 -18.0609 -49.5913
rradius 82.9564
rwrist -51.0433
rhand -6.90855 -27.781
rfingers 7.12502
rthumb 18.9588 -56.877
lclavicle -2.42517e-013 2.46493e-014
lhumerus 8.68994 0.0408033 58.2764
lradius 66.9125
lwrist 11.8549
lhand -22.4226 11.541
lfingers 7.12502
lthumb 4.00068 41.4832
rfemur -53.5791 11.2307 15.7768
rtibia 84.0905
rfoot -9.49144 -0.686944
rtoes -22.9628
lfemur -17.5802 -0.793295 -29.7657
ltibia 36.9292
lfoot -10.9727 -4.74342
ltoes -12.2969
383
root -1.79523 17.5777 5.77578 679.074 -88.0166 -680.877
lowerback 25.2001 -6.71829 -1.08548
upperback 8.81726 -9.7536 -1.9008
thorax -4.25108 -5.06312 1.3043
lowerneck -0.754631 -4.29611 -2.34806
upperneck -6.07628 -5.90223 -0.12494
head -1.69161 -2.9483 0.423369
rclavicle 4.37326e-014 -2.70347e-014
rhumerus -40.3577 -17.9217 -50.087
rradius 81.8056
rwrist -51.0719
rhand -6.43946 -27.6166
rfingers 7.12502
rthumb 19.4099 -56.6678
lclavicle 4.37326e-014 -2.70347e-014
lhumerus 12.0085 0.448544 57.8569
lradius 67.4778
lwrist 13.1817
lhand -22.8711 11.0139
lfingers 7.12502
lthumb 3.56758 40.9638
rfemur -55.0669 12.8444 15.8962
rtibia 80.906
rfoot -10.9499 -0.975574
rtoes -21.7298
lfemur -17.1036 -1.29844 -29.0972
ltibia 35.6428
lfoot -11.0773 -4.11455
ltoes -14.8559
384
root -1.76395 17.6471 5.7988 693.08 -88.4896 -694.833
lowerback 25.605 -6.7437 -0.973047
upperback 8.98122 -9.76826 -1.70904
thorax -4.24701 -5.08111 1.48577
lowerneck -1.11328 -3.49541 -1.50028
upperneck -6.15335 -4.874 -1.09351
head -1.71098 -2.43732 -0.0317876
rclavicle -1.37161e-013 9.54166e-015
rhumerus -38.9182 -17.8451 -50.5874
rradius 80.7043
rwrist -51.1447
rhand -6.04746 -27.471
rfingers 7.12502
rthumb 19.7867 -56.4838
lclavicle -1.37161e-013 9.54166e-015
lhumerus 15.0108 0.462604 57.0164
lradius 67.985
lwrist 14.618
lhand -23.3508 10.4528
lfingers 7.12502
lthumb 3.10429 40.41
rfemur -55.9399 14.2092 15.9281
rtibia 76.5197
rfoot -11.5503 -1.02334
rtoes -19.4341
lfemur -16.5903 -1.47346 -28.3813
ltibia 34.511
lfoot -11.0287 -4.08752
ltoes -17.1335
385
root -1.73244 17.7003 5.81942 711.099 -88.8433 -712.84
lowerback 26.1 -6.71474 -0.961029
upperback 9.11807 -9.74611 -1.64512
thorax -4.32341 -5.07807 1.59021
lowerneck -1.19256 -2.80045 -0.692158
upperneck -6.41087 -3.97716 -1.67205
head -1.81154 -1.99544 -0.353538
rclavicle 2.74323e-014 2.94201e-014
rhumerus -37.7258 -17.8303 -51.1483
rradius 79.7673
rwrist -51.3392
rhand -5.91307 -27.3503
rfingers 7.12502
rthumb 19.9159 -56.3498
lclavicle 2.74323e-014 2.94201e-014
lhumerus 17.8339 0.404886 55.9836
lradius 68.3827
lwrist 15.3236
lhand -23.0524 9.80586
lfingers 7.12502
lthumb 3.39254 39.7586
rfemur -56.3141 15.354 15.8306
rtibia 71.0786
rfoot -12.134 -0.873998
rtoes -16.0492
lfemur -16.1606 -1.45962 -27.7654
ltibia 33.6071
lfoot -11.0871 -4.4876
ltoes -17.831
